<?xml version="1.0" encoding="utf-8"?>
<!-- Generator: Adobe Illustrator 24.1.0, SVG Export Plug-In . SVG Version: 6.00 Build 0)  -->
<svg version="1.1" id="Layer_1" xmlns="http://www.w3.org/2000/svg" xmlns:xlink="http://www.w3.org/1999/xlink" x="0px" y="0px"
	 viewBox="0 0 1920 1080" style="enable-background:new 0 0 1920 1080;" xml:space="preserve">
<style type="text/css">
	.st0{fill:#FFFFFF;}
	.st1{fill:#8492A6;}
	.st2{fill:#E3DAC9;}
</style>
<g>
	<rect x="-0.22" y="-0.46" class="st0" width="1920" height="1081"/>
</g>
<path class="st1" d="M1919.78-0.46c-581.61,459.27-883.49,485.44-1052.83,406.47c-64.98-30.31-118.73-68.57-217.9-81.29
	C397.57,292.45,164.13,486.97,0,667C-0.07,444.51-0.15,222.03-0.22-0.46C639.78-0.46,1279.78-0.46,1919.78-0.46z"/>
<path class="st2" d="M1919.78,484.54c-537.65,352.17-852.14,413.5-1043,398c-63.2-5.13-282.87-32.49-488.45,87.44
	c-65.16,38.01-111.72,80.8-140.55,110.56c557.33,0,1114.67,0,1672,0C1919.78,881.88,1919.78,683.21,1919.78,484.54z"/>
</svg>
