<?xml version="1.0" encoding="utf-8"?>
<!-- Generator: Adobe Illustrator 24.1.0, SVG Export Plug-In . SVG Version: 6.00 Build 0)  -->
<svg version="1.1" id="Layer_1" xmlns="http://www.w3.org/2000/svg" xmlns:xlink="http://www.w3.org/1999/xlink" x="0px" y="0px"
	 viewBox="0 0 1925.1 1090.1" style="enable-background:new 0 0 1925.1 1090.1;" xml:space="preserve">
<style type="text/css">
	.st0{fill:#3C4858;}
	.st1{fill:#1B1A1F;}
	.st2{fill:#8492A6;stroke:#8492A6;stroke-width:3;stroke-miterlimit:10;}
	.st3{opacity:0.3;fill:#E6E0ED;}
	.st4{fill:#FF0000;}
</style>
<rect class="st0" width="1922" height="1090.1"/>
<path class="st1" d="M1923,869.2c0.2-21.9-1.5-866.8-1.5-866.8l-1239,1c70.8,32.3,322.3,220.8,341,259
	c-52.7,190.3-105.3,380.7-158,571c110.4,85.5,220.7,171.1,331.1,256.6c154.2,0.2,637.8,0.2,725.4,0
	C1922,1016,1922.9,877.9,1923,869.2z"/>
<path class="st1" d="M1189.4,1171.8"/>
<path class="st2" d="M0,567.3c43.2,68.2,214.2,301.1,256.5,349.2c203-27.7,406-55.3,609-83c-42.7,85.5-85.5,171.1-128.2,256.6
	c-245.8,0-491.5,0-737.3,0C0,915.8,0,741.5,0,567.3z"/>
<rect x="740.3" y="-265.2" transform="matrix(0.8327 0.5537 -0.5537 0.8327 472.6877 -429.8861)" class="st3" width="414.8" height="1664.9"/>
<rect x="1319.3" y="-223.7" transform="matrix(0.9563 -0.2925 0.2925 0.9563 -103.2262 527.1456)" class="st3" width="783.7" height="1664.9"/>
<path class="st4" d="M1629.8,768.4l-29.2-16.8c-104.7-57.6-238.5-20.9-298.8,82.2c-57.9,98.9-27.3,223.7,69.8,284.6l402.4,236.3
	l246.8-396.3c60.2-103.1,24-233.3-80.8-290.8c-100.6-55.2-228.8-23.6-292.2,72C1647.8,739.6,1629.8,768.4,1629.8,768.4z"/>
</svg>
