<?xml version="1.0" encoding="utf-8"?>
<!-- Generator: Adobe Illustrator 24.1.0, SVG Export Plug-In . SVG Version: 6.00 Build 0)  -->
<svg version="1.1" id="Layer_1" xmlns="http://www.w3.org/2000/svg" xmlns:xlink="http://www.w3.org/1999/xlink" x="0px" y="0px"
	 viewBox="0 0 1925.1 1090.1" style="enable-background:new 0 0 1925.1 1090.1;" xml:space="preserve">
<style type="text/css">
	.st0{fill:#3C4858;}
	.st1{fill:#FF0000;}
	.st2{fill:#8492A6;stroke:#8492A6;stroke-width:3;stroke-miterlimit:10;}
</style>
<rect class="st0" width="1922" height="1090.1"/>
<path class="st1" d="M1922.5,935c0.3-43.8,0.7-87.7,1-131.5l-2-801l-1239,1c147.7,47.1,304.9,125.1,341,259
	c55.1,204.4-202.8,357.5-158,571c31.5,150.3,224.2,233.5,379,244c194.4,13.1,254.6-232.9,415-225c115.3,5.7,204.7,123.6,264,228
	C1923.2,1032,1922.8,983.5,1922.5,935z"/>
<path class="st2" d="M1.5,686.5c89.8,164,180.3,217.8,255,230c116.1,19,213.8-59.2,261-15c34.9,32.6,18,109.4-7,179H2.5L1.5,686.5z"
	/>
</svg>
