<?xml version="1.0" encoding="utf-8"?>
<!-- Generator: Adobe Illustrator 24.1.1, SVG Export Plug-In . SVG Version: 6.00 Build 0)  -->
<svg version="1.1" id="Layer_1" xmlns="http://www.w3.org/2000/svg" xmlns:xlink="http://www.w3.org/1999/xlink" x="0px" y="0px"
	 viewBox="0 0 25 25" style="enable-background:new 0 0 25 25;" xml:space="preserve">
<style type="text/css">
	.st0{fill:#F34B51;}
	.st1{fill:#FFFFFF;}
</style>
<path class="st0" d="M21.1,0.6H3.9C1.8,0.6,0,2.3,0,4.5v10.4c0,2.2,1.8,3.9,3.9,3.9h4.7c0.3,0,0.6,0.2,0.7,0.4l2.8,5
	c0.2,0.3,0.6,0.3,0.8,0l2.8-5c0.1-0.3,0.4-0.4,0.7-0.4h4.7c2.2,0,3.9-1.8,3.9-3.9V4.5C25,2.3,23.2,0.6,21.1,0.6z"/>
<path class="st1" d="M17.4,5.5c-1.7-1-3.9-0.4-4.9,1.2c-1-1.7-3.2-2.2-4.9-1.2s-2.2,3.2-1.2,4.9c0.9,1.5,4.1,4.6,6.1,4.8
	c2-0.2,5.2-3.4,6.1-4.8C19.6,8.7,19.1,6.5,17.4,5.5z"/>
</svg>
