<?xml version="1.0" encoding="utf-8"?>
<!-- Generator: Adobe Illustrator 24.1.0, SVG Export Plug-In . SVG Version: 6.00 Build 0)  -->
<svg version="1.1" id="Layer_1" xmlns="http://www.w3.org/2000/svg" xmlns:xlink="http://www.w3.org/1999/xlink" x="0px" y="0px"
	 viewBox="0 0 1920 1080" style="enable-background:new 0 0 1920 1080;" xml:space="preserve">
<style type="text/css">
	.st0{fill:#222F40;}
	.st1{fill:#E3DAC9;}
</style>
<rect class="st0" width="1920" height="1080"/>
<path class="st1" d="M1919.5,746.99c-52.78,15.29-132.23,29.78-220,8.09c-179.84-44.45-254.53-206.2-315-180.91
	c-71.87,30.06,16.08,265.94-78,330.49c-94.11,64.57-241.46-130.79-420-75.8c-131.21,40.42-113.26,164.92-248,203.14
	c-139.92,39.69-216.8-78.26-396-59.63c-106.45,11.07-188.94,64.08-242,107.13c0-363.5,0-727,0-1090.5c640,0,1280,0,1920,0
	C1920.17,241.66,1919.83,494.33,1919.5,746.99z"/>
</svg>
